<?xml version="1.0" encoding="utf-8"?>
<!-- Generator: Adobe Illustrator 19.0.0, SVG Export Plug-In . SVG Version: 6.00 Build 0)  -->
<svg version="1.1" id="Layer_2" xmlns="http://www.w3.org/2000/svg" xmlns:xlink="http://www.w3.org/1999/xlink" x="0px" y="0px"
	 viewBox="0 0 511.3 651.1" enable-background="new 0 0 511.3 651.1" xml:space="preserve">
<g>
	<g>
		<g>
			<path fill="#241F1F" d="M148.2,155.5c-17.8-12.6-39.5-29.2-61.8-37.9c-21.6-8.4-35-4.9-35-4.9c14.2,2.3,26.2,15.5,26.2,15.5
				c-20.4,17.8-33.7,47.5-34.6,69.6c-1.9,46.9,9.7,78.4,24.9,92.3c15.2,13.9,46.5,9.7,66.3,4.4c44-11.8,72.2-27.8,79.8-36
				c11.2-11.9,10.4-26.3,0.6-39.3C192.6,190.2,166,168.2,148.2,155.5z M205.8,239.4c-5.7,2-43.8,10.5-62.5,9.5s-39.4-3.5-43.6-13
				c-3.8-8.7-3.6-27.6-0.5-40c3.2-12.5,13.2-35.7,22.6-39.5c9.4-3.8,41.2,18.5,54.5,30.5s34.4,34.6,37,40
				C216.1,232.6,214.3,236.4,205.8,239.4z M178.8,151.4c-7.4-8.8-30-28-30-28s-0.6-2.2,3.6-11.6c4.2-9.3,9.6-14.9,14.5-18.5
				c4.9-3.6,8.9-1.8,11.5,4.7c2.6,6.5,11,31.5,45,73c13.5,13.5,25.6,21.2,25.6,21.2s-18.1-19.8-32.1-80.3c-2.3-9.9-3.4-16.5-4-25.6
				c-0.6-9.1-0.3-8.5,0.5-21.8c0.4-6,4.7-21.5,7.5-28.3c2.5-5.9-8.8-14.2-44.8-7.5c-18.4,3.4-70.9,30.1-78.7,69.2
				C95.5,97,59,80.7,37.3,87.3c0,0,16.9,2.1,30.3,8c13.7,6,33.5,16.8,56.8,33.7c23.3,16.8,48.5,38.1,56,45.5
				c4.9,4.9,13.6,14,26.9,27.9c12,12.5,16.9,23,17.6,21.6c1.3-2.9-12.5-28.1-18.6-37.1C197.8,174.4,188.8,163.4,178.8,151.4z
				 M218.9,86.1c5.2,62.8,33.7,101.3,41.1,107.5c0,0,9.9,8.5,23.3-3.2c39-34,42.3-41.4,58-64.2c22.7-33,31.7-67.6,32.3-81.5
				c0.6-13.9-8.1-26.6-8.1-26.6s3.5,7.5,1.3,15.5c-4.2,15.2-9.4,18.5-9.4,18.5s-1-3.2-35-17.5c-38.2-13.9-60.5-14.6-84.2-7.4
				C214.7,34.3,217.8,73.5,218.9,86.1z M258.8,114.3c1-18.7,3.5-37.6,13-41.8c8.7-3.8,27.6-3.6,40-0.5c12.5,3.2,28,11.9,31.8,21.3
				c3.8,9.4-17.3,40.7-29.3,54s-28,28.3-33.5,30.9c-5.7,2.8-9.5,1.8-12.7-2.3C264.5,171.1,257.8,133,258.8,114.3z M268.3,251.4
				c24.5-30.7,40-39.8,68-53.8c36-18,49.8-19.7,74.7-24.2c33.3-6,53.6,2.8,42.3-3.7c-2.3-1.3-5-4.5-31.7-9.7
				c-8.7-1.7-17.3-1.7-23.3-1.7c-8,0,0-0.5-20.3,2c-16.3,2-23.9,6.9-20,3.3c9.3-8.7,21.5-34.2,28-49.3c20-46.7-0.3-110.7-0.3-110.7
				s2.4,34.9-5.1,60.4c-6.5,22.1-16.1,46.2-30.5,65.8c-12,16.2-32,36.2-64.8,65.2c-25.6,22.6-34.3,37.5-43.3,51.3
				c-8.8,13.4-18.5,43.5-12,82c5.9,35,41.5,73.8,41.5,73.8c-13.3-19.1-22-49-23-72C246.9,294,257.6,264.9,268.3,251.4z M451.5,185.7
				c4.5-0.8,19.6-2.6,19.6-2.6s-10.3-8.9-31.5-7.7c-21.3,1.3-54.5,2.2-107.3,30.9c-9.3,5.1-53.7,27.7-53.7,56.1
				c0,0,9.1,27.2,67.5,47.8c58.4,20.6,79.7,12.4,84,10.1c4.3-2.3,6.2-8.4,6.2-8.4s18.8-46.2,3.2-117.5
				C438,187.4,447,186.5,451.5,185.7z M401.5,271.5c-5.8,8.7-25,7.8-43.7,5.6c-18.7-2.3-55.3-15.6-59.4-20
				c-3.6-3.9-3.2-9.1,0.6-14.3c3.6-4.9,9.7-11.1,25-20.7c15.3-9.6,60.8-30.7,69.4-25.4c8.6,5.4,14.6,22.3,15.5,35.2
				C409.9,244.8,406.8,263.6,401.5,271.5z"/>
		</g>
	</g>
</g>
<g>
	<path d="M106.2,485.2c-6.8,6.3-15.7,9.5-26.7,9.5h-2.4c-15.3,0-28-7.6-38.2-22.9c-3.7-7.4-5.6-14.9-5.6-22.3
		c0-16.7,8.2-30,24.6-39.8c7-3.3,13.8-4.9,20.4-4.9c17,0,30.4,8.3,40.3,24.9c3,6.8,4.6,13.8,4.6,21v35.9c0,4.4-2.7,7.1-8.1,8.1h-0.6
		c-3.8,0-6.6-2.2-8.4-6.6v-0.9L106.2,485.2z M50.4,449.1v0.9c0,11.3,5.7,19.9,17.1,25.6c3.5,1.3,6.7,2,9.5,2h2.4
		c9.4,0,17.2-4.7,23.3-14.2c2.2-4.4,3.3-8.7,3.3-12.7v-1.2c0-10.9-5.4-19.3-16.2-25.1c-3.7-1.7-7.6-2.5-11.6-2.5H78
		c-11.5,0-20.1,6-25.9,17.9C51,443.4,50.4,446.5,50.4,449.1z"/>
	<path d="M135.9,404.7c5.4,1.4,8.1,4,8.1,7.8v1.2c6.6-6,15.6-9,26.9-9c12.4,0,23.4,5.1,33,15.4c7,8.6,10.5,17.7,10.5,27.3v39.4
		c0,4.1-2.7,6.7-8.1,7.7h-0.8c-5.4-1-8.1-3.8-8.1-8.4v-34.7c0-14.4-6.1-23.8-18.3-28.3c-3-0.8-5.6-1.2-8-1.2h-0.9
		c-10.2,0-18.2,5.3-23.8,16c-1.4,3.2-2.2,8.5-2.2,15.9v32.5c0,4.4-2.7,7.1-8.1,8.1h-0.6c-4.5,0-7.3-2.8-8.4-8.5v-72
		C127.5,407.9,130.5,404.7,135.9,404.7z"/>
	<path d="M289.9,485.2c-6.8,6.3-15.7,9.5-26.7,9.5h-2.4c-15.3,0-28-7.6-38.2-22.9c-3.7-7.4-5.6-14.9-5.6-22.3
		c0-16.7,8.2-30,24.6-39.8c7-3.3,13.8-4.9,20.4-4.9c17,0,30.4,8.3,40.3,24.9c3,6.8,4.6,13.8,4.6,21v35.9c0,4.4-2.7,7.1-8.1,8.1h-0.6
		c-3.8,0-6.6-2.2-8.4-6.6v-0.9L289.9,485.2z M234.1,449.1v0.9c0,11.3,5.7,19.9,17.1,25.6c3.5,1.3,6.7,2,9.5,2h2.4
		c9.4,0,17.2-4.7,23.3-14.2c2.2-4.4,3.3-8.7,3.3-12.7v-1.2c0-10.9-5.4-19.3-16.2-25.1c-3.7-1.7-7.6-2.5-11.6-2.5h-0.3
		c-11.5,0-20.1,6-25.9,17.9C234.7,443.4,234.1,446.5,234.1,449.1z"/>
	<path d="M336.9,460.3c13.8-33.6,21.2-51,22.3-52.3c1.9-1.6,4-2.4,6.1-2.4c5.3,1,8,3.7,8,8v0.5c-0.2,1.7-9.8,25.2-28.8,70.5
		c-9,22.4-14.2,34.5-15.6,36.3c-1.4,1.1-3.2,1.9-5.4,2.5c-5.6-1.2-8.4-3.7-8.4-7.6v-1.4c0-1.1,4.3-11.9,12.9-32.6l-27.4-66.8v-1
		c1.1-5.3,3.8-8,8.3-8c4.5,0,8.1,4.4,10.7,13.1C328.5,440.2,334.2,454,336.9,460.3z"/>
	<path d="M440.1,485.2c-6.8,6.3-15.7,9.5-26.7,9.5H411c-15.3,0-28-7.6-38.2-22.9c-3.7-7.4-5.6-14.9-5.6-22.3
		c0-16.7,8.2-30,24.6-39.8c7-3.3,13.8-4.9,20.4-4.9c17,0,30.4,8.3,40.3,24.9c3,6.8,4.6,13.8,4.6,21v35.9c0,4.4-2.7,7.1-8.1,8.1h-0.6
		c-3.8,0-6.6-2.2-8.4-6.6v-0.9L440.1,485.2z M384.3,449.1v0.9c0,11.3,5.7,19.9,17.1,25.6c3.5,1.3,6.7,2,9.5,2h2.4
		c9.4,0,17.2-4.7,23.3-14.2c2.2-4.4,3.3-8.7,3.3-12.7v-1.2c0-10.9-5.4-19.3-16.2-25.1c-3.7-1.7-7.6-2.5-11.6-2.5h-0.3
		c-11.5,0-20.1,6-25.9,17.9C384.9,443.4,384.3,446.5,384.3,449.1z"/>
</g>
<g display="none">
	<path display="inline" d="M90,533.3c6.3,0,11.3,3.1,14.9,9.3c1.1,2.5,1.7,5,1.7,7.8v14.8c0,0.8-0.5,1.3-1.6,1.4h-0.1
		c-0.7,0-1.2-0.4-1.6-1.2v0.1l0.1-3.2v-2.2c-4.6,4.3-8.9,6.5-13,6.5h-1c-5.6,0-10.3-2.8-14.1-8.5c-1.4-2.7-2.1-5.5-2.1-8.2
		c0-6.2,3-11.1,9.1-14.7C85.1,533.9,87.6,533.3,90,533.3z M76.7,549.7v0.4c0,5.4,2.7,9.5,8.2,12.3c1.8,0.6,3.3,1,4.7,1h1
		c4.6,0,8.3-2.3,11.2-6.8c1.1-2.1,1.6-4.2,1.6-6.2v-0.5c0-5.2-2.6-9.2-7.7-12c-1.8-0.8-3.7-1.2-5.6-1.2h-0.1
		c-5.5,0-9.7,2.9-12.4,8.6C76.9,547,76.7,548.5,76.7,549.7z"/>
	<path display="inline" d="M126.2,533.5c5.5,0,9.9,2.5,13,7.4l0.1,0.8v0.1c0,0.8-0.6,1.4-1.7,1.5c-0.8,0-1.6-0.9-2.7-2.6
		c-2.6-2.5-5.5-3.7-8.6-3.7c-4.2,0-7.6,2-10,6.1L116,544c0,1.7,1.5,2.7,4.5,2.9c9.6,2.3,14.9,3.6,15.7,3.9c2.1,1.4,3.2,3.2,3.2,5.3
		v0.1c0,3.2-2.4,6.1-7.2,8.9c-2.1,0.9-4.3,1.4-6.7,1.4c-4.8,0-8.9-2.3-12.3-6.8c-0.2-0.4-0.3-0.7-0.3-0.9v-0.8c0-0.7,0.7-1.2,2-1.3
		c0.5,0,1.4,1,2.7,2.9c2.5,2.3,5.3,3.4,8.5,3.4c3.9,0,7.1-1.8,9.6-5.5l0.3-1v-0.3c0-1.6-1-2.5-3-2.7c-11.1-2.5-17-4-17.6-4.5
		c-1.9-1.4-2.8-3.2-2.8-5.2c0-2.9,2.2-5.7,6.5-8.5C121.4,534.2,123.8,533.5,126.2,533.5z"/>
	<path display="inline" d="M158.1,533.5c5.5,0,9.9,2.5,13,7.4l0.1,0.8v0.1c0,0.8-0.6,1.4-1.7,1.5c-0.8,0-1.6-0.9-2.7-2.6
		c-2.6-2.5-5.5-3.7-8.6-3.7c-4.2,0-7.6,2-10,6.1l-0.1,0.9c0,1.7,1.5,2.7,4.5,2.9c9.6,2.3,14.9,3.6,15.7,3.9c2.1,1.4,3.2,3.2,3.2,5.3
		v0.1c0,3.2-2.4,6.1-7.2,8.9c-2.1,0.9-4.3,1.4-6.7,1.4c-4.8,0-8.9-2.3-12.3-6.8c-0.2-0.4-0.3-0.7-0.3-0.9v-0.8c0-0.7,0.7-1.2,2-1.3
		c0.5,0,1.4,1,2.7,2.9c2.5,2.3,5.3,3.4,8.5,3.4c3.9,0,7.1-1.8,9.6-5.5l0.3-1v-0.3c0-1.6-1-2.5-3-2.7c-11.1-2.5-17-4-17.6-4.5
		c-1.9-1.4-2.8-3.2-2.8-5.2c0-2.9,2.2-5.7,6.5-8.5C153.4,534.2,155.8,533.5,158.1,533.5z"/>
	<path display="inline" d="M193.6,533.5c4.3,0,8.1,1.6,11.6,4.9c3.3,3.5,5,7.4,5,11.7c0,6.2-2.9,11.1-8.8,14.6
		c-2.5,1.3-5,1.9-7.3,1.9h-1c-4.4,0-8.5-2.1-12.4-6.3c-2.3-3.3-3.5-6.7-3.5-10.3c0-5.4,2.4-9.9,7.1-13.5
		C187.2,534.5,190.4,533.5,193.6,533.5z M180.4,549.7v0.6c0,5,2.4,8.8,7.2,11.6c1.8,0.9,3.6,1.4,5.6,1.4h0.8c5.1,0,9.1-2.7,11.8-8
		c0.6-1.7,1-3.3,1-4.9v-0.6c0-4.2-1.9-7.7-5.7-10.5c-2.2-1.5-4.8-2.3-7.6-2.3c-5.6,0-9.7,2.9-12.3,8.8
		C180.7,547.1,180.4,548.4,180.4,549.7z"/>
	<path display="inline" d="M232.5,533.2c4.3,0,8.2,1.6,11.6,4.8c0.1,0.2,0.2,0.5,0.2,0.8v0.1c-0.2,1.1-0.7,1.6-1.6,1.6h-0.1
		c-0.4,0-1.7-0.8-3.7-2.3c-2.1-1-4.1-1.6-6.1-1.6h-0.8c-5.3,0-9.4,2.8-12.1,8.3c-0.6,1.9-1,3.6-1,5.1c0,5.4,2.8,9.5,8.3,12.3
		c1.7,0.6,3.5,1,5.3,1c3.1,0,6.2-1.2,9.1-3.7l0.7-0.2h0.3c0.8,0,1.3,0.5,1.4,1.6v0c0,1.4-2.5,3-7.6,5c-1.7,0.3-3,0.5-3.9,0.5h-1
		c-4.5,0-8.6-2.1-12.5-6.4c-2.4-3.3-3.6-6.8-3.6-10.3c0-5.4,2.4-10,7.2-13.7C226,534.2,229.2,533.2,232.5,533.2z"/>
	<path display="inline" d="M254,533.1c1.1,0.3,1.7,0.7,1.7,1.3v30.7c0,0.8-0.6,1.3-1.7,1.5H254c-0.8,0-1.3-0.6-1.6-1.8v-29.6
		C252.6,533.8,253.1,533.1,254,533.1z M254,524.3c1.1,0.3,1.7,0.7,1.7,1.3v0.8c0,0.7-0.6,1.2-1.9,1.3c-0.7,0-1.1-0.6-1.4-1.7
		C252.6,524.9,253.2,524.3,254,524.3z"/>
	<path display="inline" d="M280.6,533.3c6.3,0,11.3,3.1,14.9,9.3c1.1,2.5,1.7,5,1.7,7.8v14.8c0,0.8-0.5,1.3-1.6,1.4h-0.1
		c-0.7,0-1.2-0.4-1.6-1.2v0.1l0.1-3.2v-2.2c-4.6,4.3-8.9,6.5-13,6.5h-1c-5.6,0-10.3-2.8-14.1-8.5c-1.4-2.7-2.1-5.5-2.1-8.2
		c0-6.2,3-11.1,9.1-14.7C275.7,533.9,278.2,533.3,280.6,533.3z M267.2,549.7v0.4c0,5.4,2.7,9.5,8.2,12.3c1.8,0.6,3.3,1,4.7,1h1
		c4.6,0,8.3-2.3,11.2-6.8c1.1-2.1,1.6-4.2,1.6-6.2v-0.5c0-5.2-2.6-9.2-7.7-12c-1.8-0.8-3.7-1.2-5.6-1.2h-0.1
		c-5.5,0-9.7,2.9-12.4,8.6C267.5,547,267.2,548.5,267.2,549.7z"/>
	<path display="inline" d="M310.8,520.8h0.4c1,0.2,1.5,0.6,1.5,1.2v12.1h6.1l1.1-0.1c0.7,0,1.1,0.6,1.4,1.8c0,0.7-0.5,1.2-1.4,1.5
		l-1.7-0.1h-5.5v19.3c0,3.6,1.3,5.9,3.8,6.8l3,0.2h1.4c0.6,0,1.1,0.5,1.3,1.6v0c-0.2,1.1-0.7,1.6-1.5,1.6H318c-3.6,0-6.3-2-8.1-6
		c-0.3-1-0.4-2.1-0.4-3.5v-20h-3.4l-1.9,0.1c-0.9-0.3-1.4-0.9-1.4-1.6c0.2-1.1,0.9-1.6,2.3-1.6v0l0.4,0h4v-11.3
		C309.6,521.4,310,520.8,310.8,520.8z"/>
	<path display="inline" d="M330.4,533.1c1.1,0.3,1.7,0.7,1.7,1.3v30.7c0,0.8-0.6,1.3-1.7,1.5h-0.1c-0.8,0-1.3-0.6-1.6-1.8v-29.6
		C329,533.8,329.5,533.1,330.4,533.1z M330.4,524.3c1.1,0.3,1.7,0.7,1.7,1.3v0.8c0,0.7-0.6,1.2-1.9,1.3c-0.7,0-1.1-0.6-1.4-1.7
		C329,524.9,329.6,524.3,330.4,524.3z"/>
	<path display="inline" d="M356.8,533.5c4.3,0,8.1,1.6,11.6,4.9c3.3,3.5,5,7.4,5,11.7c0,6.2-2.9,11.1-8.8,14.6
		c-2.5,1.3-5,1.9-7.3,1.9h-1c-4.4,0-8.5-2.1-12.4-6.3c-2.3-3.3-3.5-6.7-3.5-10.3c0-5.4,2.4-9.9,7.1-13.5
		C350.4,534.5,353.5,533.5,356.8,533.5z M343.6,549.7v0.6c0,5,2.4,8.8,7.2,11.6c1.8,0.9,3.6,1.4,5.6,1.4h0.8c5.1,0,9.1-2.7,11.8-8
		c0.6-1.7,1-3.3,1-4.9v-0.6c0-4.2-1.9-7.7-5.7-10.5c-2.2-1.5-4.8-2.3-7.6-2.3c-5.6,0-9.7,2.9-12.3,8.8
		C343.8,547.1,343.6,548.4,343.6,549.7z"/>
	<path display="inline" d="M382.1,533.3c1.1,0.3,1.7,0.7,1.7,1.3v4.7c4.5-4,8.8-6,13-6c4.6,0,8.6,1.9,12.1,5.7
		c2.6,3.2,3.9,6.5,3.9,10v16.2c0,0.6-0.5,1.1-1.6,1.3c-1.1-0.2-1.6-0.7-1.6-1.6v-14.3c0-6.8-3-11.3-8.9-13.5
		c-1.4-0.4-2.7-0.5-3.8-0.5h-0.4c-5,0-8.8,2.6-11.5,7.7c-0.7,1.6-1.1,4.1-1.1,7.4v13.4c0,0.8-0.5,1.3-1.6,1.4H382
		c-0.8,0-1.3-0.6-1.6-1.8v-29.4C380.6,534,381.2,533.3,382.1,533.3z"/>
</g>
</svg>
