<?xml version="1.0" encoding="utf-8"?>
<!-- Generator: Adobe Illustrator 19.0.0, SVG Export Plug-In . SVG Version: 6.00 Build 0)  -->
<svg version="1.1" id="Layer_2" xmlns="http://www.w3.org/2000/svg" xmlns:xlink="http://www.w3.org/1999/xlink" x="0px" y="0px"
	 viewBox="0 0 433.8 519.6" style="enable-background:new 0 0 433.8 519.6;" xml:space="preserve">
<style type="text/css">
	.st0{fill:#fff;}
</style>
<g>
	<g>
		<g>
			<path class="st0" d="M110.9,151.8c-17.8-12.6-39.5-29.2-61.8-37.9c-21.6-8.4-35-4.9-35-4.9c14.2,2.3,26.2,15.5,26.2,15.5
				C19.9,142.4,6.6,172,5.7,194.2c-1.9,46.9,9.7,78.4,24.9,92.3c15.2,13.9,46.5,9.7,66.3,4.4c44-11.8,72.2-27.8,79.8-36
				c11.2-11.9,10.4-26.3,0.6-39.3C155.3,186.4,128.7,164.4,110.9,151.8z M168.5,235.7c-5.7,2-43.8,10.5-62.5,9.5s-39.4-3.5-43.6-13
				c-3.8-8.7-3.6-27.6-0.5-40c3.2-12.5,13.2-35.7,22.6-39.5c9.4-3.8,41.2,18.5,54.5,30.5s34.4,34.6,37,40
				C178.8,228.8,177,232.7,168.5,235.7z M141.5,147.7c-7.4-8.8-30-28-30-28s-0.6-2.2,3.6-11.6c4.2-9.3,9.6-14.9,14.5-18.5
				c4.9-3.6,8.9-1.8,11.5,4.7c2.6,6.5,11,31.5,45,73c13.5,13.5,25.6,21.2,25.6,21.2s-18.1-19.8-32.1-80.3c-2.3-9.9-3.4-16.5-4-25.6
				c-0.6-9.1-0.3-8.5,0.5-21.8c0.4-6,4.7-21.5,7.5-28.3c2.5-5.9-8.8-14.2-44.8-7.5C120.5,28.3,68,55,60.2,94.2
				C58.2,93.2,21.7,76.9,0,83.5c0,0,16.9,2.1,30.3,8c13.7,6,33.5,16.8,56.8,33.7c23.3,16.8,48.5,38.1,56,45.5
				c4.9,4.9,13.6,14,26.9,27.9c12,12.5,16.9,23,17.6,21.6c1.3-2.9-12.5-28.1-18.6-37.1C160.5,170.7,151.5,159.7,141.5,147.7z
				 M181.6,82.4c5.2,62.8,33.7,101.3,41.1,107.5c0,0,9.9,8.5,23.3-3.2c39-34,42.3-41.4,58-64.2c22.7-33,31.7-67.6,32.3-81.5
				c0.6-13.9-8.1-26.6-8.1-26.6s3.5,7.5,1.3,15.5c-4.2,15.2-9.4,18.5-9.4,18.5s-1-3.2-35-17.5C247,17,224.6,16.3,201,23.4
				C177.4,30.6,180.5,69.7,181.6,82.4z M221.4,110.6c1-18.7,3.5-37.6,13-41.8c8.7-3.8,27.6-3.6,40-0.5c12.5,3.2,28,11.9,31.8,21.3
				c3.8,9.4-17.3,40.7-29.3,54c-12,13.3-28,28.3-33.5,30.9c-5.7,2.8-9.5,1.8-12.7-2.3C227.2,167.3,220.4,129.2,221.4,110.6z
				 M231,247.7c24.5-30.7,40-39.8,68-53.8c36-18,49.8-19.7,74.7-24.2c33.3-6,53.6,2.8,42.3-3.7c-2.3-1.3-5-4.5-31.7-9.7
				c-9.2-1.8-19-2.2-28.3-1.5c-5.1,0.4-10.2,1.2-15.3,1.8c-16.3,2-23.9,6.9-20,3.3c9.3-8.7,21.5-34.2,28-49.3
				C368.7,64,348.4,0,348.4,0s2.4,34.9-5.1,60.4c-6.5,22.1-16.1,46.2-30.5,65.8c-12,16.2-32,36.2-64.8,65.2
				c-25.6,22.6-34.3,37.5-43.3,51.3c-8.8,13.4-18.5,43.5-12,82c5.9,35,41.5,73.8,41.5,73.8c-13.3-19.1-22-49-23-72
				C209.6,290.2,220.3,261.2,231,247.7z M414.2,182c4.5-0.8,19.6-2.6,19.6-2.6s-10.3-8.9-31.5-7.7C381,173,347.7,174,295,202.7
				c-9.3,5.1-53.7,27.7-53.7,56.1c0,0,9.1,27.2,67.5,47.8c58.4,20.6,79.7,12.4,84,10.1c4.3-2.3,6.2-8.4,6.2-8.4s18.8-46.2,3.2-117.5
				C400.7,183.6,409.7,182.8,414.2,182z M364.2,267.7c-5.8,8.7-25,7.8-43.7,5.6c-18.7-2.3-55.3-15.6-59.4-20
				c-3.6-3.9-3.2-9.1,0.6-14.3c3.6-4.9,9.7-11.1,25-20.7c15.3-9.6,60.8-30.7,69.4-25.4c8.6,5.4,14.6,22.3,15.5,35.2
				C372.6,241.1,369.5,259.8,364.2,267.7z"/>
		</g>
	</g>
</g>
<g class='st0'>
	<path d="M77.9,481.4c-6.8,6.3-15.7,9.5-26.7,9.5h-2.4c-15.3,0-28-7.6-38.2-22.9C6.9,460.5,5,453.1,5,445.6c0-16.7,8.2-30,24.6-39.8
		c7-3.3,13.8-4.9,20.4-4.9c17,0,30.4,8.3,40.3,24.9c3,6.8,4.6,13.8,4.6,21v35.9c0,4.4-2.7,7.1-8.1,8.1h-0.6c-3.8,0-6.6-2.2-8.4-6.6
		v-0.9L77.9,481.4z M22.1,445.3v0.9c0,11.3,5.7,19.9,17.1,25.6c3.5,1.3,6.7,2,9.5,2h2.4c9.4,0,17.2-4.7,23.3-14.2
		c2.2-4.4,3.3-8.7,3.3-12.7v-1.2c0-10.9-5.4-19.3-16.2-25.1c-3.7-1.7-7.6-2.5-11.6-2.5h-0.3c-11.5,0-20.1,6-25.9,17.9
		C22.7,439.7,22.1,442.8,22.1,445.3z"/>
	<path d="M107.6,401c5.4,1.4,8.1,4,8.1,7.8v1.2c6.6-6,15.6-9,26.9-9c12.4,0,23.4,5.1,33,15.4c7,8.6,10.5,17.7,10.5,27.3v39.4
		c0,4.1-2.7,6.7-8.1,7.7H177c-5.4-1-8.1-3.8-8.1-8.4v-34.7c0-14.4-6.1-23.8-18.3-28.3c-3-0.8-5.6-1.2-8-1.2h-0.9
		c-10.2,0-18.2,5.3-23.8,16c-1.4,3.2-2.2,8.5-2.2,15.9v32.5c0,4.4-2.7,7.1-8.1,8.1h-0.6c-4.5,0-7.3-2.8-8.4-8.5v-72
		C99.2,404.1,102.2,401,107.6,401z"/>
	<path d="M261.6,481.4c-6.8,6.3-15.7,9.5-26.7,9.5h-2.4c-15.3,0-28-7.6-38.2-22.9c-3.7-7.4-5.6-14.9-5.6-22.3
		c0-16.7,8.2-30,24.6-39.8c7-3.3,13.8-4.9,20.4-4.9c17,0,30.4,8.3,40.3,24.9c3,6.8,4.6,13.8,4.6,21v35.9c0,4.4-2.7,7.1-8.1,8.1h-0.6
		c-3.8,0-6.6-2.2-8.4-6.6v-0.9L261.6,481.4z M205.8,445.3v0.9c0,11.3,5.7,19.9,17.1,25.6c3.5,1.3,6.7,2,9.5,2h2.4
		c9.4,0,17.2-4.7,23.3-14.2c2.2-4.4,3.3-8.7,3.3-12.7v-1.2c0-10.9-5.4-19.3-16.2-25.1c-3.7-1.7-7.6-2.5-11.6-2.5h-0.3
		c-11.5,0-20.1,6-25.9,17.9C206.4,439.7,205.8,442.8,205.8,445.3z"/>
	<path d="M308.5,456.6c13.8-33.6,21.2-51,22.3-52.3c1.9-1.6,4-2.4,6.1-2.4c5.3,1,8,3.7,8,8v0.5c-0.2,1.7-9.8,25.2-28.8,70.5
		c-9,22.4-14.2,34.5-15.6,36.3c-1.4,1.1-3.2,1.9-5.4,2.5c-5.6-1.2-8.4-3.7-8.4-7.6v-1.4c0-1.1,4.3-11.9,12.9-32.6l-27.4-66.8v-1
		c1.1-5.3,3.8-8,8.3-8c4.5,0,8.1,4.4,10.7,13.1C300.1,436.5,305.9,450.2,308.5,456.6z"/>
	<path d="M411.8,481.4c-6.8,6.3-15.7,9.5-26.7,9.5h-2.4c-15.3,0-28-7.6-38.2-22.9c-3.7-7.4-5.6-14.9-5.6-22.3
		c0-16.7,8.2-30,24.6-39.8c7-3.3,13.8-4.9,20.4-4.9c17,0,30.4,8.3,40.3,24.9c3,6.8,4.6,13.8,4.6,21v35.9c0,4.4-2.7,7.1-8.1,8.1h-0.6
		c-3.8,0-6.6-2.2-8.4-6.6v-0.9L411.8,481.4z M356,445.3v0.9c0,11.3,5.7,19.9,17.1,25.6c3.5,1.3,6.7,2,9.5,2c0,0,2.4,0,2.4,0
		c11.3,0,21.5-8,25.2-18.5c1.1-3.1,1.5-6.3,1.5-9.6c0-10.9-5.4-19.3-16.2-25.1c-3.7-1.7-7.6-2.5-11.6-2.5h-0.3
		c-11.5,0-20.1,6-25.9,17.9C356.6,439.7,356,442.8,356,445.3z"/>
</g>
</svg>
