<?xml version="1.0" encoding="utf-8"?>
<!-- Generator: Adobe Illustrator 19.0.0, SVG Export Plug-In . SVG Version: 6.00 Build 0)  -->
<svg version="1.1" id="Layer_2" xmlns="http://www.w3.org/2000/svg" xmlns:xlink="http://www.w3.org/1999/xlink" x="0px" y="0px"
	 viewBox="-764 646.9 423.8 118.7" style="enable-background:new -764 646.9 423.8 118.7;" xml:space="preserve">
<style type="text/css">
	.st0{display:none;}
	.st1{display:inline;}
</style>
<path d="M-691.1,727.4c-6.8,6.3-15.7,9.5-26.7,9.5h-2.4c-15.3,0-28-7.6-38.2-22.9c-3.7-7.4-5.6-14.9-5.6-22.3
	c0-16.7,8.2-30,24.6-39.8c7-3.3,13.8-4.9,20.4-4.9c17,0,30.4,8.3,40.3,24.9c3,6.8,4.6,13.8,4.6,21v35.9c0,4.4-2.7,7.1-8.1,8.1h-0.6
	c-3.8,0-6.6-2.2-8.4-6.6v-0.9L-691.1,727.4z M-746.9,691.3v0.9c0,11.3,5.7,19.9,17.1,25.6c3.5,1.3,6.7,2,9.5,2h2.4
	c9.4,0,17.2-4.7,23.3-14.2c2.2-4.4,3.3-8.7,3.3-12.7v-1.2c0-10.9-5.4-19.3-16.2-25.1c-3.7-1.7-7.6-2.5-11.6-2.5h-0.2
	c-11.5,0-20.1,6-25.9,17.9C-746.3,685.6-746.9,688.7-746.9,691.3z"/>
<path d="M-661.4,646.9c5.4,1.4,8.1,4,8.1,7.8v1.2c6.6-6,15.6-9,26.9-9c12.4,0,23.4,5.1,33,15.4c7,8.6,10.5,17.7,10.5,27.3V729
	c0,4.1-2.7,6.7-8.1,7.7h-0.8c-5.4-1-8.1-3.8-8.1-8.4v-34.7c0-14.4-6.1-23.8-18.3-28.3c-3-0.8-5.6-1.2-8-1.2h-0.9
	c-10.2,0-18.2,5.3-23.8,16c-1.4,3.2-2.2,8.5-2.2,15.9v32.5c0,4.4-2.7,7.1-8.1,8.1h-0.6c-4.5,0-7.3-2.8-8.4-8.5v-72
	C-669.8,650.1-666.8,646.9-661.4,646.9z"/>
<path d="M-507.4,727.4c-6.8,6.3-15.7,9.5-26.7,9.5h-2.4c-15.3,0-28-7.6-38.2-22.9c-3.7-7.4-5.6-14.9-5.6-22.3
	c0-16.7,8.2-30,24.6-39.8c7-3.3,13.8-4.9,20.4-4.9c17,0,30.4,8.3,40.3,24.9c3,6.8,4.6,13.8,4.6,21v35.9c0,4.4-2.7,7.1-8.1,8.1h-0.6
	c-3.8,0-6.6-2.2-8.4-6.6v-0.9L-507.4,727.4z M-563.2,691.3v0.9c0,11.3,5.7,19.9,17.1,25.6c3.5,1.3,6.7,2,9.5,2h2.4
	c9.4,0,17.2-4.7,23.3-14.2c2.2-4.4,3.3-8.7,3.3-12.7v-1.2c0-10.9-5.4-19.3-16.2-25.1c-3.7-1.7-7.6-2.5-11.6-2.5h-0.3
	c-11.5,0-20.1,6-25.9,17.9C-562.6,685.6-563.2,688.7-563.2,691.3z"/>
<path d="M-460.4,702.5c13.8-33.6,21.2-51,22.3-52.3c1.9-1.6,4-2.4,6.1-2.4c5.3,1,8,3.7,8,8v0.5c-0.2,1.7-9.8,25.2-28.8,70.5
	c-9,22.4-14.2,34.5-15.6,36.3c-1.4,1.1-3.2,1.9-5.4,2.5c-5.6-1.2-8.4-3.7-8.4-7.6v-1.4c0-1.1,4.3-11.9,12.9-32.6l-27.4-66.8v-1
	c1.1-5.3,3.8-8,8.3-8s8.1,4.4,10.7,13.1C-468.8,682.4-463.1,696.2-460.4,702.5z"/>
<path d="M-357.2,727.4c-6.8,6.3-15.7,9.5-26.7,9.5h-2.4c-15.3,0-28-7.6-38.2-22.9c-3.7-7.4-5.6-14.9-5.6-22.3
	c0-16.7,8.2-30,24.6-39.8c7-3.3,13.8-4.9,20.4-4.9c17,0,30.4,8.3,40.3,24.9c3,6.8,4.6,13.8,4.6,21v35.9c0,4.4-2.7,7.1-8.1,8.1h-0.6
	c-3.8,0-6.6-2.2-8.4-6.6v-0.9L-357.2,727.4z M-413,691.3v0.9c0,11.3,5.7,19.9,17.1,25.6c3.5,1.3,6.7,2,9.5,2h2.4
	c9.4,0,17.2-4.7,23.3-14.2c2.2-4.4,3.3-8.7,3.3-12.7v-1.2c0-10.9-5.4-19.3-16.2-25.1c-3.7-1.7-7.6-2.5-11.6-2.5h-0.3
	c-11.5,0-20.1,6-25.9,17.9C-412.4,685.6-413,688.7-413,691.3z"/>
<g class="st0">
	<path class="st1" d="M-613,749.2c6.3,0,11.3,3.1,14.9,9.3c1.1,2.5,1.7,5,1.7,7.8v14.8c0,0.8-0.5,1.3-1.6,1.4h-0.1
		c-0.7,0-1.2-0.4-1.6-1.2v0.1l0.1-3.2V776c-4.6,4.3-8.9,6.5-13,6.5h-1c-5.6,0-10.3-2.8-14.1-8.5c-1.4-2.7-2.1-5.5-2.1-8.2
		c0-6.2,3-11.1,9.1-14.7C-617.9,749.8-615.4,749.2-613,749.2z M-626.3,765.6v0.4c0,5.4,2.7,9.5,8.2,12.3c1.8,0.6,3.3,1,4.7,1h1
		c4.6,0,8.3-2.3,11.2-6.8c1.1-2.1,1.6-4.2,1.6-6.2v-0.5c0-5.2-2.6-9.2-7.7-12c-1.8-0.8-3.7-1.2-5.6-1.2h-0.1
		c-5.5,0-9.7,2.9-12.4,8.6C-626.1,762.9-626.3,764.4-626.3,765.6z"/>
	<path class="st1" d="M-576.8,749.4c5.5,0,9.9,2.5,13,7.4l0.1,0.8v0.1c0,0.8-0.6,1.4-1.7,1.5c-0.8,0-1.6-0.9-2.7-2.6
		c-2.6-2.5-5.5-3.7-8.6-3.7c-4.2,0-7.6,2-10,6.1l-0.3,0.9c0,1.7,1.5,2.7,4.5,2.9c9.6,2.3,14.9,3.6,15.7,3.9c2.1,1.4,3.2,3.2,3.2,5.3
		v0.1c0,3.2-2.4,6.1-7.2,8.9c-2.1,0.9-4.3,1.4-6.7,1.4c-4.8,0-8.9-2.3-12.3-6.8c-0.2-0.4-0.3-0.7-0.3-0.9v-0.8c0-0.7,0.7-1.2,2-1.3
		c0.5,0,1.4,1,2.7,2.9c2.5,2.3,5.3,3.4,8.5,3.4c3.9,0,7.1-1.8,9.6-5.5l0.3-1v-0.3c0-1.6-1-2.5-3-2.7c-11.1-2.5-17-4-17.6-4.5
		c-1.9-1.4-2.8-3.2-2.8-5.2c0-2.9,2.2-5.7,6.5-8.5C-581.6,750.1-579.2,749.4-576.8,749.4z"/>
	<path class="st1" d="M-544.9,749.4c5.5,0,9.9,2.5,13,7.4l0.1,0.8v0.1c0,0.8-0.6,1.4-1.7,1.5c-0.8,0-1.6-0.9-2.7-2.6
		c-2.6-2.5-5.5-3.7-8.6-3.7c-4.2,0-7.6,2-10,6.1l-0.1,0.9c0,1.7,1.5,2.7,4.5,2.9c9.6,2.3,14.9,3.6,15.7,3.9c2.1,1.4,3.2,3.2,3.2,5.3
		v0.1c0,3.2-2.4,6.1-7.2,8.9c-2.1,0.9-4.3,1.4-6.7,1.4c-4.8,0-8.9-2.3-12.3-6.8c-0.2-0.4-0.3-0.7-0.3-0.9v-0.8c0-0.7,0.7-1.2,2-1.3
		c0.5,0,1.4,1,2.7,2.9c2.5,2.3,5.3,3.4,8.5,3.4c3.9,0,7.1-1.8,9.6-5.5l0.3-1v-0.3c0-1.6-1-2.5-3-2.7c-11.1-2.5-17-4-17.6-4.5
		c-1.9-1.4-2.8-3.2-2.8-5.2c0-2.9,2.2-5.7,6.5-8.5C-549.6,750.1-547.2,749.4-544.9,749.4z"/>
	<path class="st1" d="M-509.4,749.4c4.3,0,8.1,1.6,11.6,4.9c3.3,3.5,5,7.4,5,11.7c0,6.2-2.9,11.1-8.8,14.6c-2.5,1.3-5,1.9-7.3,1.9
		h-1c-4.4,0-8.5-2.1-12.4-6.3c-2.3-3.3-3.5-6.7-3.5-10.3c0-5.4,2.4-9.9,7.1-13.5C-515.8,750.4-512.6,749.4-509.4,749.4z
		 M-522.6,765.6v0.6c0,5,2.4,8.8,7.2,11.6c1.8,0.9,3.6,1.4,5.6,1.4h0.8c5.1,0,9.1-2.7,11.8-8c0.6-1.7,1-3.3,1-4.9v-0.6
		c0-4.2-1.9-7.7-5.7-10.5c-2.2-1.5-4.8-2.3-7.6-2.3c-5.6,0-9.7,2.9-12.3,8.8C-522.3,763-522.6,764.3-522.6,765.6z"/>
	<path class="st1" d="M-470.5,749.1c4.3,0,8.2,1.6,11.6,4.8c0.1,0.2,0.2,0.5,0.2,0.8v0.1c-0.2,1.1-0.7,1.6-1.6,1.6h-0.1
		c-0.4,0-1.7-0.8-3.7-2.3c-2.1-1-4.1-1.6-6.1-1.6h-0.8c-5.3,0-9.4,2.8-12.1,8.3c-0.6,1.9-1,3.6-1,5.1c0,5.4,2.8,9.5,8.3,12.3
		c1.7,0.6,3.5,1,5.3,1c3.1,0,6.2-1.2,9.1-3.7l0.7-0.2h0.3c0.8,0,1.3,0.5,1.4,1.6l0,0c0,1.4-2.5,3-7.6,5c-1.7,0.3-3,0.5-3.9,0.5h-1
		c-4.5,0-8.6-2.1-12.5-6.4c-2.4-3.3-3.6-6.8-3.6-10.3c0-5.4,2.4-10,7.2-13.7C-477,750.1-473.8,749.1-470.5,749.1z"/>
	<path class="st1" d="M-449,749c1.1,0.3,1.7,0.7,1.7,1.3V781c0,0.8-0.6,1.3-1.7,1.5l0,0c-0.8,0-1.3-0.6-1.6-1.8v-29.6
		C-450.4,749.7-449.9,749-449,749z M-449,740.2c1.1,0.3,1.7,0.7,1.7,1.3v0.8c0,0.7-0.6,1.2-1.9,1.3c-0.7,0-1.1-0.6-1.4-1.7
		C-450.4,740.8-449.8,740.2-449,740.2z"/>
	<path class="st1" d="M-422.4,749.2c6.3,0,11.3,3.1,14.9,9.3c1.1,2.5,1.7,5,1.7,7.8v14.8c0,0.8-0.5,1.3-1.6,1.4h-0.1
		c-0.7,0-1.2-0.4-1.6-1.2v0.1l0.1-3.2V776c-4.6,4.3-8.9,6.5-13,6.5h-1c-5.6,0-10.3-2.8-14.1-8.5c-1.4-2.7-2.1-5.5-2.1-8.2
		c0-6.2,3-11.1,9.1-14.7C-427.3,749.8-424.8,749.2-422.4,749.2z M-435.8,765.6v0.4c0,5.4,2.7,9.5,8.2,12.3c1.8,0.6,3.3,1,4.7,1h1
		c4.6,0,8.3-2.3,11.2-6.8c1.1-2.1,1.6-4.2,1.6-6.2v-0.5c0-5.2-2.6-9.2-7.7-12c-1.8-0.8-3.7-1.2-5.6-1.2h-0.1
		c-5.5,0-9.7,2.9-12.4,8.6C-435.5,762.9-435.8,764.4-435.8,765.6z"/>
	<path class="st1" d="M-392.2,736.7h0.4c1,0.2,1.5,0.6,1.5,1.2V750h6.1l1.1-0.1c0.7,0,1.1,0.6,1.4,1.8c0,0.7-0.5,1.2-1.4,1.5
		l-1.7-0.1h-5.5v19.3c0,3.6,1.3,5.9,3.8,6.8l3,0.2h1.4c0.6,0,1.1,0.5,1.3,1.6l0,0c-0.2,1.1-0.7,1.6-1.5,1.6h-2.7c-3.6,0-6.3-2-8.1-6
		c-0.3-1-0.4-2.1-0.4-3.5v-20h-3.4l-1.9,0.1c-0.9-0.3-1.4-0.9-1.4-1.6c0.2-1.1,0.9-1.6,2.3-1.6l0,0h0.4h4v-11.3
		C-393.4,737.3-393,736.7-392.2,736.7z"/>
	<path class="st1" d="M-372.6,749c1.1,0.3,1.7,0.7,1.7,1.3V781c0,0.8-0.6,1.3-1.7,1.5h-0.1c-0.8,0-1.3-0.6-1.6-1.8v-29.6
		C-374,749.7-373.5,749-372.6,749z M-372.6,740.2c1.1,0.3,1.7,0.7,1.7,1.3v0.8c0,0.7-0.6,1.2-1.9,1.3c-0.7,0-1.1-0.6-1.4-1.7
		C-374,740.8-373.4,740.2-372.6,740.2z"/>
	<path class="st1" d="M-346.2,749.4c4.3,0,8.1,1.6,11.6,4.9c3.3,3.5,5,7.4,5,11.7c0,6.2-2.9,11.1-8.8,14.6c-2.5,1.3-5,1.9-7.3,1.9
		h-1c-4.4,0-8.5-2.1-12.4-6.3c-2.3-3.3-3.5-6.7-3.5-10.3c0-5.4,2.4-9.9,7.1-13.5C-352.6,750.4-349.5,749.4-346.2,749.4z
		 M-359.4,765.6v0.6c0,5,2.4,8.8,7.2,11.6c1.8,0.9,3.6,1.4,5.6,1.4h0.8c5.1,0,9.1-2.7,11.8-8c0.6-1.7,1-3.3,1-4.9v-0.6
		c0-4.2-1.9-7.7-5.7-10.5c-2.2-1.5-4.8-2.3-7.6-2.3c-5.6,0-9.7,2.9-12.3,8.8C-359.2,763-359.4,764.3-359.4,765.6z"/>
	<path class="st1" d="M-320.9,749.2c1.1,0.3,1.7,0.7,1.7,1.3v4.7c4.5-4,8.8-6,13-6c4.6,0,8.6,1.9,12.1,5.7c2.6,3.2,3.9,6.5,3.9,10
		v16.2c0,0.6-0.5,1.1-1.6,1.3c-1.1-0.2-1.6-0.7-1.6-1.6v-14.3c0-6.8-3-11.3-8.9-13.5c-1.4-0.4-2.7-0.5-3.8-0.5h-0.4
		c-5,0-8.8,2.6-11.5,7.7c-0.7,1.6-1.1,4.1-1.1,7.4V781c0,0.8-0.5,1.3-1.6,1.4h-0.3c-0.8,0-1.3-0.6-1.6-1.8v-29.4
		C-322.4,749.9-321.8,749.2-320.9,749.2z"/>
</g>
</svg>
